# xmcd CD database file
#
# Track frame offsets:
#	150
#	23545
#	56972
#	82709
#	105263
#	135898
#	167961
#	208076
#	222749
#	244530
#	267856
#	305768
#	330506
#
# Disc length: 4731 seconds
#
# Revision: 0
# Processed by: cddbd v1.5.1PL2 Copyright (c) Steve Scherf et al.
# Submitted via: CDex 1.50beta10
#
DISCID=ad12790d
DTITLE=Various Artist - Jazz Brew Vol. 1
DYEAR=2002
DGENRE=Jazz
TTITLE0=Chris McGregor - Country and Cooking
TTITLE1=Bheki Mseleku - Angola
TTITLE2=Voice - Lakushon' Ilanga
TTITLE3=Hugh Masakela - Abangoma
TTITLE4=Zim Ngqawana - Ebhofolo
TTITLE5=Moses Khumalo - Hymn for Taiwa
TTITLE6=Winston Mankunku Ngozi - Yakhal' Inkomo
TTITLE7=Gloria Bosman - Slowly
TTITLE8=Paul Hanmer - You Must Nêva
TTITLE9=Marcus Wyatt - You Were There
TTITLE10=Carlo Mombelli - Requiem
TTITLE11=Andile Yenana - Oasis
TTITLE12=Hotep Idris Galeta - Bolero for Nefertari and Jazz
EXTD=YEAR: 2002
EXTT0=
EXTT1=
EXTT2=
EXTT3=
EXTT4=
EXTT5=
EXTT6=
EXTT7=
EXTT8=
EXTT9=
EXTT10=
EXTT11=
EXTT12=
PLAYORDER=
